<svg class="svg-icon" style="width: 1em; height: 1em;vertical-align: middle;fill: currentColor;overflow: hidden;" viewBox="0 0 1024 1024" version="1.1" xmlns="http://www.w3.org/2000/svg"><path d="M810.666667 128 695.466667 128 328.533333 128 213.333333 128C166.4 128 128 166.4 128 213.333333L128 328.533333 128 699.733333 128 810.666667C128 857.6 166.4 896 213.333333 896L328.533333 896 699.733333 896 810.666667 896C857.6 896 896 857.6 896 810.666667L896 695.466667 896 328.533333 896 213.333333C896 166.4 857.6 128 810.666667 128M665.6 725.333333 512 571.733333 358.4 725.333333 298.666667 665.6 452.266667 512 298.666667 358.4 358.4 298.666667 512 452.266667 665.6 298.666667 725.333333 358.4 571.733333 512 725.333333 665.6 665.6 725.333333Z"  /></svg>