<svg class="svg-icon" style="width: 1em; height: 1em;vertical-align: middle;fill: currentColor;overflow: hidden;" viewBox="0 0 1024 1024" version="1.1" xmlns="http://www.w3.org/2000/svg"><path d="M368.64 223.146667a42.666667 42.666667 0 0 0-60.16 5.546666l-213.333333 256a42.666667 42.666667 0 0 0 0 54.186667l206.08 256a42.666667 42.666667 0 0 0 33.28 15.786667 42.666667 42.666667 0 0 0 33.28-69.546667L183.04 512l191.146667-228.693333a42.666667 42.666667 0 0 0-5.546667-60.16zM929.28 485.12l-203.946667-256a42.666667 42.666667 0 0 0-60.16-6.4 42.666667 42.666667 0 0 0-6.4 60.16L840.96 512l-191.146667 229.12a42.666667 42.666667 0 0 0 5.546667 60.16A42.666667 42.666667 0 0 0 682.666667 810.666667a42.666667 42.666667 0 0 0 32.853333-15.36l213.333333-256a42.666667 42.666667 0 0 0 0.426667-54.186667z" fill="#231F20" /></svg>