<svg class="svg-icon" style="width: 1em; height: 1em;vertical-align: middle;fill: currentColor;overflow: hidden;" viewBox="0 0 1024 1024" version="1.1" xmlns="http://www.w3.org/2000/svg"><path d="M632.383 834.179"  /><path d="M350.993 629.891l-237.76 0c-23.874 0-43.229 19.354-43.229 43.229l0 237.76c0 23.877 19.354 43.23 43.229 43.23l237.76 0c23.876 0 43.229-19.354 43.229-43.23l0-237.76C394.222 649.244 374.869 629.891 350.993 629.891zM333.702 873.945c0 14.961-12.129 27.089-27.091 27.089L157.615 901.034c-14.962 0-27.091-12.128-27.091-27.089L130.524 724.947c0-14.961 12.129-27.089 27.091-27.089l148.996 0c14.962 0 27.091 12.128 27.091 27.089L333.702 873.945z"  /><path d="M349.958 70.58l-237.76 0c-23.875 0-43.229 19.354-43.229 43.229L68.969 351.57c0 23.875 19.354 43.229 43.229 43.229l17.246 0L129.444 275.292l0.046 0L129.49 165.639c0-14.962 12.128-27.09 27.09-27.09l145.31 0 0-0.286 91.298 0L393.188 113.81C393.188 89.935 373.833 70.58 349.958 70.58z"  /><path d="M673.498 70.58 911.26 70.58c23.875 0 43.229 19.354 43.229 43.229L954.489 351.57c0 23.875-19.354 43.229-43.229 43.229l-17.246 0L894.014 275.292l-0.046 0L893.968 165.639c0-14.962-12.13-27.09-27.091-27.09l-145.31 0 0-0.286L630.27 138.263 630.27 113.81C630.27 89.935 649.623 70.58 673.498 70.58z"  /><path d="M954.04 548.404c0 5.967-4.841 10.808-10.808 10.808L80.811 559.212c-5.968 0-10.807-4.841-10.807-10.808l0-54.038c0-5.968 4.838-10.806 10.807-10.806l862.422 0c5.967 0 10.808 4.838 10.808 10.806L954.041 548.404z"  /><path d="M724.721 954.109l-63.788 0c-16.935 0-30.663-19.354-30.663-43.23l0-24.452 64.761 0 0 0 29.69 0.093L724.721 954.109zM802.124 953.967l0-24.454c0-23.875-19.354-43.229-43.229-43.229l-34.175 0.431 0 67.252L802.124 953.967z"  /><path d="M872.045 886.284l0 67.683-16.761 0c-11.712 0-21.205-19.355-21.205-43.23l0-24.452L872.045 886.285zM910.523 629.891l-17.246 0 0 119.478-0.046 0 0 109.627c0 12.663-9.439 24.263-21.187 27.227l0 67.809 38.479 0c23.875 0 43.229-19.349 43.229-43.22L953.752 673.108C953.752 649.239 934.398 629.891 910.523 629.891z"  /></svg>