<svg class="svg-icon" style="width: 1em; height: 1em;vertical-align: middle;fill: currentColor;overflow: hidden;" viewBox="0 0 1024 1024" version="1.1" xmlns="http://www.w3.org/2000/svg"><path d="M734.899626 360.022657 631.834272 256.964466l51.553143-51.528584c17.084097-17.060561 44.740994-17.060561 61.822021 0l41.219797 41.215704c17.084097 17.08512 17.084097 44.786019 0 61.866023L734.899626 360.022657 734.899626 360.022657zM435.487396 659.423631 332.425112 556.36544l280.18226-277.983175L715.672726 381.440455 435.487396 659.423631 435.487396 659.423631zM249.629407 743.942583l62.705134-167.490665 102.198613 102.223173L249.629407 743.942583 249.629407 743.942583zM773.136485 779.166829c14.425547 0 26.105564 11.680017 26.105564 26.106588 0 14.406105-11.680017 26.086122-26.105564 26.086122L250.844072 831.359538c-14.402011 0-26.086122-11.680017-26.086122-26.086122 0-14.426571 11.68411-26.106588 26.086122-26.106588L773.136485 779.166829 773.136485 779.166829zM773.136485 779.166829"  /></svg>