<svg class="svg-icon" style="width: 1em; height: 1em;vertical-align: middle;fill: currentColor;overflow: hidden;" viewBox="0 0 1024 1024" version="1.1" xmlns="http://www.w3.org/2000/svg"><path d="M318.5664 318.5664v386.8672h386.8672V318.5664H318.5664z m-34.133333-68.266667h455.133866a34.133333 34.133333 0 0 1 34.133334 34.133334v455.133866a34.133333 34.133333 0 0 1-34.133334 34.133334H284.433067a34.133333 34.133333 0 0 1-34.133334-34.133334V284.433067a34.133333 34.133333 0 0 1 34.133334-34.133334zM712.021333 204.8a34.133333 34.133333 0 1 1 0-68.266667H853.333333a34.133333 34.133333 0 0 1 34.133334 34.133334v145.544533a34.133333 34.133333 0 0 1-68.266667 0V204.8h-107.178667zM819.2 712.362667a34.133333 34.133333 0 0 1 68.266667 0V853.333333a34.133333 34.133333 0 0 1-34.133334 34.133334h-139.844266a34.133333 34.133333 0 1 1 0-68.266667H819.2v-106.837333zM317.405867 819.2a34.133333 34.133333 0 0 1 0 68.266667H170.666667a34.133333 34.133333 0 0 1-34.133334-34.133334v-143.018666a34.133333 34.133333 0 1 1 68.266667 0V819.2h112.605867zM204.8 204.8v109.499733a34.133333 34.133333 0 1 1-68.266667 0V170.666667a34.133333 34.133333 0 0 1 34.133334-34.133334h147.524266a34.133333 34.133333 0 0 1 0 68.266667H204.8z"  /></svg>