<svg class="svg-icon" style="width: 1em; height: 1em;vertical-align: middle;fill: currentColor;overflow: hidden;" viewBox="0 0 1024 1024" version="1.1" xmlns="http://www.w3.org/2000/svg"><path d="M656 240V16H144v992h736V240z" fill="#FEEB9E" /><path d="M656 16v224h224z" fill="#E6C45F" /><path d="M895.904 239.824a15.536 15.536 0 0 0-4.464-10.48L666.656 4.56a15.376 15.376 0 0 0-10.336-4.432L656 0H160a32 32 0 0 0-32 32v960a32 32 0 0 0 32 32h704a32 32 0 0 0 32-32V240l-0.096-0.176zM672 54.096L841.904 224H672V54.096zM864 992H160V32h480v224h224v736z" fill="#2B3139" /><path d="M458.368 611.904l-127.312-127.312a15.84 15.84 0 0 0-22.464 0 15.84 15.84 0 0 0 0 22.464L425.52 624l-116.928 116.944a15.84 15.84 0 0 0 0 22.464 15.84 15.84 0 0 0 22.464 0l127.28-127.28c0.336-0.288 0.752-0.384 1.072-0.704a15.888 15.888 0 0 0 4.64-11.424 15.696 15.696 0 0 0-4.64-11.408c-0.304-0.288-0.704-0.4-1.04-0.688zM704 736H512a16 16 0 1 0 0 32h192a16 16 0 1 0 0-32z" fill="#2B3139" /></svg>